<svg xmlns="http://www.w3.org/2000/svg" viewBox="0 0 512 512">
  <defs><radialGradient id="felt" cx="50%" cy="46%" r="62%">
    <stop offset="0%" stop-color="rgb(31,122,69)"/>
    <stop offset="100%" stop-color="rgb(12,67,36)"/>
  </radialGradient>
  <radialGradient id="star" cx="50%" cy="38%" r="70%">
    <stop offset="0%" stop-color="rgb(255,226,115)"/>
    <stop offset="100%" stop-color="rgb(245,197,24)"/>
  </radialGradient></defs>
  <rect width="512" height="512" rx="96" fill="url(#felt)"/>
  <circle cx="256" cy="256" r="233" fill="none" stroke="rgb(184,135,10)" stroke-width="10" opacity="0.85"/>
  <path d="M387.0579992522395 352.0371992522395 L412.27297525223946 387.0579992522395 L387.0579992522395 422.0787992522395 L361.8430232522395 387.0579992522395 Z M124.94200074776055 352.0371992522395 L150.15697674776055 387.0579992522395 L124.94200074776055 422.0787992522395 L99.72702474776055 387.0579992522395 Z M124.94200074776052 89.92120074776055 L150.15697674776052 124.94200074776055 L124.94200074776052 159.96280074776053 L99.72702474776052 124.94200074776055 Z M387.0579992522394 89.92120074776052 L412.2729752522394 124.94200074776052 L387.0579992522394 159.96280074776053 L361.84302325223945 124.94200074776052 Z" fill="rgb(245,197,24)" opacity="0.9"/>
  <path d="M256.0 95.7 L303.0 142.5 L369.3 142.7 L369.5 209.0 L416.3 256.0 L369.5 303.0 L369.3 369.3 L303.0 369.5 L256.0 416.3 L209.0 369.5 L142.7 369.3 L142.5 303.0 L95.7 256.0 L142.5 209.0 L142.7 142.7 L209.0 142.5 Z" fill="url(#star)" stroke="rgb(184,135,10)" stroke-width="8" stroke-linejoin="round"/>
  <circle cx="256" cy="256" r="22" fill="rgb(255,226,115)"/>
</svg>